<!DOCTYPE svg PUBLIC "-//W3C//DTD SVG 1.1//EN" "http://www.w3.org/Graphics/SVG/1.1/DTD/svg11.dtd">
<!-- Uploaded to: SVG Repo, www.svgrepo.com, Transformed by: SVG Repo Mixer Tools -->
<svg height="80px" width="80px" version="1.1" id="Layer_1" xmlns="http://www.w3.org/2000/svg" xmlns:xlink="http://www.w3.org/1999/xlink" viewBox="0 0 512 512" xml:space="preserve" fill="#000000">
<g id="SVGRepo_bgCarrier" stroke-width="0"/>
<g id="SVGRepo_tracerCarrier" stroke-linecap="round" stroke-linejoin="round"/>
<g id="SVGRepo_iconCarrier"> <path style="fill:#FF9F19;" d="M256.005,0.73c-101.272,0-183.671,82.395-183.671,183.671c0,51.288,21.687,100.614,59.485,135.329 h248.373c37.797-34.716,59.485-84.041,59.485-135.329C439.676,83.124,357.277,0.73,256.005,0.73z"/> <path style="fill:#F28618;" d="M380.192,319.73c37.797-34.716,59.485-84.041,59.485-135.329 c0-101.276-82.399-183.671-183.671-183.671v319H380.192z"/> <path style="fill:#AEC6D9;" d="M428.751,398.369c-26.284-39.861-47.252-91.174-60.296-144.94H143.556 c-13.045,53.767-34.013,105.079-60.296,144.94c-2.781,4.217-3.332,9.211-2.06,13.719h349.612 C432.083,407.579,431.531,402.584,428.751,398.369z"/> <path style="fill:#99B8CC;" d="M368.454,253.428H256.005v158.659h174.806c1.272-4.508,0.72-9.502-2.06-13.719 C402.468,358.507,381.499,307.195,368.454,253.428z"/> <path style="fill:#61DAF2;" d="M509.806,484.22c-4.453,8.015-14.695,10.798-22.708,6.234c-24.266-13.803-53.878-12.69-77.141,2.783 c-36.066,24.044-82.598,24.044-118.665,0c-10.798-7.124-22.93-11.243-35.286-12.133c-16.028-1.224-32.392,2.783-46.418,12.133 c-36.066,24.044-82.598,24.044-118.665,0c-20.147-13.358-45.638-16.029-68.124-7.124c-8.46,3.451-18.257-0.779-21.596-9.351 c-3.45-8.571,0.778-18.256,9.351-21.707c32.617-12.913,69.572-9.128,98.849,10.464c24.823,16.475,56.881,16.475,81.703,0 c19.592-13.135,42.412-19.035,64.898-17.811c18.811,0.891,37.291,6.902,53.767,17.811c24.823,16.475,56.881,16.475,81.704,0 c33.84-22.597,76.809-24.156,112.096-4.119C511.586,465.963,514.369,476.205,509.806,484.22z"/> <path style="fill:#45C7E6;" d="M509.806,484.22c-4.453,8.015-14.695,10.798-22.708,6.234c-24.266-13.803-53.878-12.69-77.141,2.783 c-36.066,24.044-82.598,24.044-118.665,0c-10.798-7.124-22.93-11.243-35.286-12.133v-33.395 c18.811,0.891,37.291,6.902,53.767,17.811c24.823,16.475,56.881,16.475,81.704,0c33.84-22.597,76.809-24.156,112.096-4.119 C511.586,465.963,514.369,476.205,509.806,484.22z"/> <path style="fill:#61DAF2;" d="M509.806,417.43c-4.453,8.015-14.695,10.798-22.708,6.234c-24.266-13.803-53.878-12.69-77.141,2.783 c-36.066,24.044-82.598,24.044-118.665,0c-10.798-7.124-22.93-11.243-35.286-12.133c-16.028-1.224-32.392,2.783-46.418,12.133 c-36.066,24.044-82.598,24.044-118.665,0c-20.147-13.358-45.638-16.029-68.124-7.124c-8.46,3.451-18.257-0.779-21.596-9.351 c-3.45-8.571,0.778-18.256,9.351-21.707c32.617-12.913,69.572-9.128,98.849,10.464c24.823,16.475,56.881,16.475,81.703,0 c19.592-13.135,42.412-19.035,64.898-17.811c18.811,0.891,37.291,6.902,53.767,17.811c24.823,16.475,56.881,16.475,81.704,0 c33.84-22.597,76.809-24.156,112.096-4.119C511.586,399.174,514.369,409.416,509.806,417.43z"/> <path style="fill:#45C7E6;" d="M509.806,417.43c-4.453,8.015-14.695,10.798-22.708,6.234c-24.266-13.803-53.878-12.69-77.141,2.783 c-36.066,24.044-82.598,24.044-118.665,0c-10.798-7.124-22.93-11.243-35.286-12.133v-33.395 c18.811,0.891,37.291,6.902,53.767,17.811c24.823,16.475,56.881,16.475,81.704,0c33.84-22.597,76.809-24.156,112.096-4.119 C511.586,399.174,514.369,409.416,509.806,417.43z"/> <path style="fill:#E4EBF0;" d="M368.545,256.134c-0.111,3.896-1.558,7.903-4.675,10.909l-29.275,29.387 c-6.235,6.234-17.366,6.234-23.6,0l-21.594-21.595l-21.594,21.595c-3.228,3.228-7.571,4.898-11.801,4.898 c-4.23,0-8.571-1.67-11.801-4.898l-21.594-21.595l-21.594,21.595c-3.117,3.117-7.347,4.898-11.801,4.898 c-4.454,0-8.683-1.781-11.801-4.898l-29.275-29.387c-3.786-3.673-5.122-8.794-4.564-13.581c6.233-25.603,10.13-48.756,12.356-70.685 c0.78-8.571,8.015-15.028,16.586-15.028h166.974c8.571,0,15.806,6.456,16.586,15.028c2.226,21.929,6.122,45.083,12.356,70.685 C368.545,254.13,368.545,255.132,368.545,256.134z"/> <path style="fill:#CDD9E4;" d="M368.545,256.134c-0.111,3.896-1.558,7.903-4.675,10.909l-29.275,29.387 c-6.235,6.234-17.366,6.234-23.6,0l-21.594-21.595l-21.594,21.595c-3.228,3.228-7.571,4.898-11.801,4.898V167.749h83.487 c8.571,0,15.806,6.456,16.586,15.028c2.226,21.929,6.122,45.083,12.356,70.685C368.545,254.13,368.545,255.132,368.545,256.134z"/> </g>
</svg>