<!DOCTYPE svg PUBLIC "-//W3C//DTD SVG 1.1//EN" "http://www.w3.org/Graphics/SVG/1.1/DTD/svg11.dtd">

<!-- Uploaded to: SVG Repo, www.svgrepo.com, Transformed by: SVG Repo Mixer Tools -->
<svg height="74px" width="74px" version="1.1" id="Layer_1" xmlns="http://www.w3.org/2000/svg"
    xmlns:xlink="http://www.w3.org/1999/xlink" viewBox="0 0 512 512" xml:space="preserve" fill="#000000">

    <g id="SVGRepo_bgCarrier" stroke-width="0" />

    <g id="SVGRepo_tracerCarrier" stroke-linecap="round" stroke-linejoin="round" />

    <g id="SVGRepo_iconCarrier">
        <polygon style="fill:#759af0;"
            points="361.464,183.32 258.086,183.32 206.718,270.672 301.078,416.576 498.635,416.576 " />
        <path style="fill:#1c4fc4;"
            d="M510.156,409.801L372.984,176.544l-51.688-87.896c-2.402-4.083-6.784-6.59-11.52-6.59 s-9.119,2.507-11.52,6.59l-51.689,87.896l-40.388,68.681l-37.734-58.345c-2.463-3.808-6.688-6.106-11.222-6.106 c-4.535,0-8.759,2.299-11.222,6.106L66.051,310.501c-4.008,6.199-2.233,14.473,3.964,18.481c6.196,4.008,14.473,2.232,18.481-3.964 l55.361-85.602v163.797H13.365C5.983,403.212,0,409.196,0,416.577s5.983,13.365,13.365,13.365h287.713h197.557 c4.794,0,9.22-2.567,11.601-6.729C512.616,419.051,512.585,413.934,510.156,409.801z M309.776,121.789l28.325,48.166h-56.65 L309.776,121.789z M170.586,403.211V239.413l105.933,163.798H170.586z M323.14,403.211V254.772c0-7.381-5.983-13.365-13.365-13.365 c-7.381,0-13.365,5.983-13.365,13.365v129.977l-43.614-67.438l-30.378-46.973l43.314-73.654h88.088l121.452,206.528H323.14z" />
    </g>

</svg>